<mxfile host="app.diagrams.net" agent="Mozilla/5.0 (Windows NT 10.0; Win64; x64) AppleWebKit/537.36 (KHTML, like Gecko) Chrome/131.0.0.0 Safari/537.36" version="26.0.5">
  <diagram name="Página-1" id="mRF_guLoawjbaeZr_DBD">
    <mxGraphModel dx="1050" dy="1699" grid="1" gridSize="10" guides="1" tooltips="1" connect="1" arrows="1" fold="1" page="1" pageScale="1" pageWidth="827" pageHeight="1169" math="0" shadow="0">
      <root>
        <mxCell id="0" />
        <mxCell id="1" parent="0" />
        <mxCell id="tPnXkRpVGwlKUNFZepc5-8" value="&lt;font style=&quot;font-size: 24px;&quot;&gt;OBJETIVO&lt;/font&gt;" style="rounded=1;whiteSpace=wrap;html=1;fillColor=#f8cecc;strokeColor=#b85450;" vertex="1" parent="1">
          <mxGeometry x="300" y="-10" width="160" height="60" as="geometry" />
        </mxCell>
        <mxCell id="tPnXkRpVGwlKUNFZepc5-9" value="" style="endArrow=classic;html=1;rounded=0;" edge="1" parent="1">
          <mxGeometry width="50" height="50" relative="1" as="geometry">
            <mxPoint x="480" y="19.5" as="sourcePoint" />
            <mxPoint x="540" y="19.5" as="targetPoint" />
          </mxGeometry>
        </mxCell>
        <mxCell id="tPnXkRpVGwlKUNFZepc5-10" value="&lt;span style=&quot;font-size: 24px;&quot;&gt;CONSEGUIR VICTORIA&lt;/span&gt;" style="rounded=1;whiteSpace=wrap;html=1;fillColor=#f8cecc;strokeColor=#b85450;" vertex="1" parent="1">
          <mxGeometry x="550" y="-10" width="190" height="70" as="geometry" />
        </mxCell>
        <mxCell id="tPnXkRpVGwlKUNFZepc5-12" value="" style="shape=process;whiteSpace=wrap;html=1;backgroundOutline=1;fillColor=#fff2cc;strokeColor=#d6b656;" vertex="1" parent="1">
          <mxGeometry x="280" y="250" width="220" height="180" as="geometry" />
        </mxCell>
        <mxCell id="tPnXkRpVGwlKUNFZepc5-13" value="&lt;font style=&quot;font-size: 19px;&quot;&gt;TABLAS USADAS&lt;/font&gt;" style="text;html=1;align=center;verticalAlign=middle;whiteSpace=wrap;rounded=0;" vertex="1" parent="1">
          <mxGeometry x="310" y="260" width="160" height="30" as="geometry" />
        </mxCell>
        <mxCell id="tPnXkRpVGwlKUNFZepc5-14" value="- Goals_Table&lt;div&gt;- Matches_Table&lt;/div&gt;&lt;div&gt;- Players_Table&lt;/div&gt;&lt;div&gt;- Events_Table&lt;/div&gt;&lt;div&gt;- Minutes_Table(Creada por mí)&lt;/div&gt;&lt;div&gt;- TeamStats_Table&lt;/div&gt;&lt;div&gt;- PlayerStats_Table&lt;/div&gt;&lt;div&gt;&lt;span style=&quot;background-color: transparent; color: light-dark(rgb(0, 0, 0), rgb(255, 255, 255));&quot;&gt;-&amp;nbsp;&amp;nbsp;&lt;/span&gt;&lt;/div&gt;" style="text;html=1;align=left;verticalAlign=middle;whiteSpace=wrap;rounded=0;" vertex="1" parent="1">
          <mxGeometry x="300" y="320" width="170" height="80" as="geometry" />
        </mxCell>
        <mxCell id="tPnXkRpVGwlKUNFZepc5-16" value="&lt;font style=&quot;font-size: 21px;&quot;&gt;TRATAMIENTO DE DATOS&lt;/font&gt;" style="rounded=1;whiteSpace=wrap;html=1;fillColor=#d5e8d4;strokeColor=#82b366;" vertex="1" parent="1">
          <mxGeometry x="290" y="90" width="170" height="60" as="geometry" />
        </mxCell>
        <mxCell id="tPnXkRpVGwlKUNFZepc5-17" value="&lt;font style=&quot;font-size: 19px;&quot;&gt;Fichero CSV&lt;/font&gt;" style="rounded=0;whiteSpace=wrap;html=1;fillColor=#ffe6cc;strokeColor=#d79b00;" vertex="1" parent="1">
          <mxGeometry x="110" y="170" width="120" height="60" as="geometry" />
        </mxCell>
        <mxCell id="tPnXkRpVGwlKUNFZepc5-18" value="" style="endArrow=classic;html=1;rounded=0;" edge="1" parent="1">
          <mxGeometry width="50" height="50" relative="1" as="geometry">
            <mxPoint x="240" y="200" as="sourcePoint" />
            <mxPoint x="290" y="200" as="targetPoint" />
          </mxGeometry>
        </mxCell>
        <mxCell id="tPnXkRpVGwlKUNFZepc5-19" value="&lt;font style=&quot;font-size: 19px;&quot;&gt;Modelo de datos&lt;/font&gt;" style="rounded=0;whiteSpace=wrap;html=1;fillColor=#ffe6cc;strokeColor=#d79b00;" vertex="1" parent="1">
          <mxGeometry x="310" y="170" width="120" height="60" as="geometry" />
        </mxCell>
        <mxCell id="tPnXkRpVGwlKUNFZepc5-20" value="" style="endArrow=classic;html=1;rounded=0;" edge="1" parent="1">
          <mxGeometry width="50" height="50" relative="1" as="geometry">
            <mxPoint x="450" y="200" as="sourcePoint" />
            <mxPoint x="530" y="200" as="targetPoint" />
          </mxGeometry>
        </mxCell>
        <mxCell id="tPnXkRpVGwlKUNFZepc5-21" value="&lt;font style=&quot;font-size: 19px;&quot;&gt;POWERBI(archivo .pBix)&lt;/font&gt;" style="rounded=0;whiteSpace=wrap;html=1;fillColor=#ffe6cc;strokeColor=#d79b00;" vertex="1" parent="1">
          <mxGeometry x="550" y="170" width="220" height="60" as="geometry" />
        </mxCell>
        <mxCell id="tPnXkRpVGwlKUNFZepc5-22" value="&lt;font style=&quot;font-size: 16px;&quot;&gt;INFORMACION RELEVANTE SOBRE EQUIPOS&lt;/font&gt;" style="rounded=1;whiteSpace=wrap;html=1;fillColor=#d5e8d4;strokeColor=#82b366;" vertex="1" parent="1">
          <mxGeometry x="255" y="470" width="175" height="80" as="geometry" />
        </mxCell>
        <mxCell id="tPnXkRpVGwlKUNFZepc5-23" value="" style="endArrow=classic;html=1;rounded=0;" edge="1" parent="1">
          <mxGeometry width="50" height="50" relative="1" as="geometry">
            <mxPoint x="240" y="550" as="sourcePoint" />
            <mxPoint x="200" y="579.5" as="targetPoint" />
          </mxGeometry>
        </mxCell>
        <mxCell id="tPnXkRpVGwlKUNFZepc5-25" value="&lt;font style=&quot;font-size: 18px;&quot;&gt;CANTIDAD VICTORIAS, EMPATES, DERROTAS&lt;/font&gt;" style="rounded=1;whiteSpace=wrap;html=1;fillColor=#e1d5e7;strokeColor=#9673a6;" vertex="1" parent="1">
          <mxGeometry x="110" y="585" width="170" height="100" as="geometry" />
        </mxCell>
        <mxCell id="tPnXkRpVGwlKUNFZepc5-26" value="" style="endArrow=classic;html=1;rounded=0;" edge="1" parent="1">
          <mxGeometry width="50" height="50" relative="1" as="geometry">
            <mxPoint x="362.5" y="580" as="sourcePoint" />
            <mxPoint x="363" y="620" as="targetPoint" />
          </mxGeometry>
        </mxCell>
        <mxCell id="tPnXkRpVGwlKUNFZepc5-27" value="&lt;span style=&quot;font-size: 18px;&quot;&gt;GOLEADORES&lt;/span&gt;" style="rounded=1;whiteSpace=wrap;html=1;fillColor=#e1d5e7;strokeColor=#9673a6;" vertex="1" parent="1">
          <mxGeometry x="285" y="640" width="170" height="100" as="geometry" />
        </mxCell>
        <mxCell id="tPnXkRpVGwlKUNFZepc5-28" value="&lt;font style=&quot;font-size: 18px;&quot;&gt;EFECTIVIDAD DE GOLES&lt;/font&gt;" style="rounded=1;whiteSpace=wrap;html=1;fillColor=#e1d5e7;strokeColor=#9673a6;" vertex="1" parent="1">
          <mxGeometry x="500" y="570" width="170" height="100" as="geometry" />
        </mxCell>
        <mxCell id="tPnXkRpVGwlKUNFZepc5-29" value="" style="endArrow=classic;html=1;rounded=0;" edge="1" parent="1">
          <mxGeometry width="50" height="50" relative="1" as="geometry">
            <mxPoint x="440" y="570" as="sourcePoint" />
            <mxPoint x="480" y="590" as="targetPoint" />
          </mxGeometry>
        </mxCell>
        <mxCell id="tPnXkRpVGwlKUNFZepc5-30" value="" style="endArrow=classic;html=1;rounded=0;" edge="1" parent="1">
          <mxGeometry width="50" height="50" relative="1" as="geometry">
            <mxPoint x="440" y="510" as="sourcePoint" />
            <mxPoint x="530" y="510" as="targetPoint" />
          </mxGeometry>
        </mxCell>
        <mxCell id="tPnXkRpVGwlKUNFZepc5-32" value="&lt;font style=&quot;font-size: 16px;&quot;&gt;EVENTOS&lt;/font&gt;" style="rounded=1;whiteSpace=wrap;html=1;fillColor=#e1d5e7;strokeColor=#9673a6;" vertex="1" parent="1">
          <mxGeometry x="540" y="480" width="120" height="60" as="geometry" />
        </mxCell>
        <mxCell id="tPnXkRpVGwlKUNFZepc5-33" value="" style="endArrow=classic;html=1;rounded=0;" edge="1" parent="1">
          <mxGeometry width="50" height="50" relative="1" as="geometry">
            <mxPoint x="420" y="570" as="sourcePoint" />
            <mxPoint x="510" y="710" as="targetPoint" />
          </mxGeometry>
        </mxCell>
        <mxCell id="tPnXkRpVGwlKUNFZepc5-34" value="&lt;font style=&quot;font-size: 16px;&quot;&gt;POSESION&lt;/font&gt;" style="rounded=1;whiteSpace=wrap;html=1;fillColor=#e1d5e7;strokeColor=#9673a6;" vertex="1" parent="1">
          <mxGeometry x="525" y="700" width="120" height="60" as="geometry" />
        </mxCell>
        <mxCell id="tPnXkRpVGwlKUNFZepc5-35" value="OFFSIDE" style="rounded=1;whiteSpace=wrap;html=1;fillColor=#f5f5f5;fontColor=#333333;strokeColor=#666666;" vertex="1" parent="1">
          <mxGeometry x="700" y="470" width="120" height="30" as="geometry" />
        </mxCell>
        <mxCell id="tPnXkRpVGwlKUNFZepc5-36" value="RED CARD&lt;span style=&quot;color: rgba(0, 0, 0, 0); font-family: monospace; font-size: 0px; text-align: start; text-wrap-mode: nowrap;&quot;&gt;%3CmxGraphModel%3E%3Croot%3E%3CmxCell%20id%3D%220%22%2F%3E%3CmxCell%20id%3D%221%22%20parent%3D%220%22%2F%3E%3CmxCell%20id%3D%222%22%20value%3D%22OFFSIDE%22%20style%3D%22rounded%3D1%3BwhiteSpace%3Dwrap%3Bhtml%3D1%3B%22%20vertex%3D%221%22%20parent%3D%221%22%3E%3CmxGeometry%20x%3D%22700%22%20y%3D%22460%22%20width%3D%22120%22%20height%3D%2230%22%20as%3D%22geometry%22%2F%3E%3C%2FmxCell%3E%3C%2Froot%3E%3C%2FmxGraphModel%3E&lt;/span&gt;" style="rounded=1;whiteSpace=wrap;html=1;fillColor=#f5f5f5;fontColor=#333333;strokeColor=#666666;" vertex="1" parent="1">
          <mxGeometry x="700" y="500" width="120" height="30" as="geometry" />
        </mxCell>
        <mxCell id="tPnXkRpVGwlKUNFZepc5-37" value="YELLOW CARD" style="rounded=1;whiteSpace=wrap;html=1;fillColor=#f5f5f5;fontColor=#333333;strokeColor=#666666;" vertex="1" parent="1">
          <mxGeometry x="700" y="530" width="120" height="30" as="geometry" />
        </mxCell>
        <mxCell id="tPnXkRpVGwlKUNFZepc5-38" value="SUBSTITUTION" style="rounded=1;whiteSpace=wrap;html=1;fillColor=#f5f5f5;fontColor=#333333;strokeColor=#666666;" vertex="1" parent="1">
          <mxGeometry x="700" y="560" width="120" height="30" as="geometry" />
        </mxCell>
        <mxCell id="tPnXkRpVGwlKUNFZepc5-40" value="INJURY" style="rounded=1;whiteSpace=wrap;html=1;fillColor=#f5f5f5;fontColor=#333333;strokeColor=#666666;" vertex="1" parent="1">
          <mxGeometry x="700" y="590" width="120" height="30" as="geometry" />
        </mxCell>
        <mxCell id="tPnXkRpVGwlKUNFZepc5-41" value="" style="shape=curlyBracket;whiteSpace=wrap;html=1;rounded=1;labelPosition=left;verticalLabelPosition=middle;align=right;verticalAlign=middle;" vertex="1" parent="1">
          <mxGeometry x="670" y="485" width="20" height="120" as="geometry" />
        </mxCell>
      </root>
    </mxGraphModel>
  </diagram>
</mxfile>
